<svg width="12" height="12" viewBox="0 0 12 12" fill="none" xmlns="http://www.w3.org/2000/svg">
<path d="M6 0C9.31371 0 12 2.68629 12 6C12 9.31371 9.31371 12 6 12C2.68629 12 0 9.31371 0 6C0 2.68629 2.68629 0 6 0ZM4.58579 3.17157C4.19526 2.78105 3.5621 2.78105 3.17157 3.17157C2.78105 3.5621 2.78105 4.19526 3.17157 4.58579L4.586 6L3.17157 7.41421C2.81109 7.7747 2.78336 8.34193 3.08838 8.73422L3.17157 8.82843C3.5621 9.21895 4.19526 9.21895 4.58579 8.82843L6 7.414L7.41421 8.82843C7.7747 9.18891 8.34193 9.21664 8.73422 8.91162L8.82843 8.82843C9.21895 8.4379 9.21895 7.80474 8.82843 7.41421L7.414 6L8.82843 4.58579C9.18891 4.2253 9.21664 3.65807 8.91162 3.26578L8.82843 3.17157C8.4379 2.78105 7.80474 2.78105 7.41421 3.17157L6 4.586L4.58579 3.17157Z" fill="#52555A"/>
</svg>
