<svg width="24" height="19" viewBox="0 0 24 19" fill="none" xmlns="http://www.w3.org/2000/svg">
<g opacity="0.2">
<path fill-rule="evenodd" clip-rule="evenodd" d="M7 9C7 9.26522 6.89464 9.51957 6.70711 9.70711C6.51957 9.89464 6.26522 10 6 10C5.73478 10 5.48043 9.89464 5.29289 9.70711C5.10536 9.51957 5 9.26522 5 9C5 8.73478 5.10536 8.48043 5.29289 8.29289C5.48043 8.10536 5.73478 8 6 8C6.26522 8 6.51957 8.10536 6.70711 8.29289C6.89464 8.48043 7 8.73478 7 9ZM11 9C11 9.26522 10.8946 9.51957 10.7071 9.70711C10.5196 9.89464 10.2652 10 10 10C9.73478 10 9.48043 9.89464 9.29289 9.70711C9.10536 9.51957 9 9.26522 9 9C9 8.73478 9.10536 8.48043 9.29289 8.29289C9.48043 8.10536 9.73478 8 10 8C10.2652 8 10.5196 8.10536 10.7071 8.29289C10.8946 8.48043 11 8.73478 11 9ZM7 5C7 5.26522 6.89464 5.51957 6.70711 5.70711C6.51957 5.89464 6.26522 6 6 6C5.73478 6 5.48043 5.89464 5.29289 5.70711C5.10536 5.51957 5 5.26522 5 5C5 4.73478 5.10536 4.48043 5.29289 4.29289C5.48043 4.10536 5.73478 4 6 4C6.26522 4 6.51957 4.10536 6.70711 4.29289C6.89464 4.48043 7 4.73478 7 5ZM11 5C11 5.26522 10.8946 5.51957 10.7071 5.70711C10.5196 5.89464 10.2652 6 10 6C9.73478 6 9.48043 5.89464 9.29289 5.70711C9.10536 5.51957 9 5.26522 9 5C9 4.73478 9.10536 4.48043 9.29289 4.29289C9.48043 4.10536 9.73478 4 10 4C10.2652 4 10.5196 4.10536 10.7071 4.29289C10.8946 4.48043 11 4.73478 11 5ZM15 9C15 9.26522 14.8946 9.51957 14.7071 9.70711C14.5196 9.89464 14.2652 10 14 10C13.7348 10 13.4804 9.89464 13.2929 9.70711C13.1054 9.51957 13 9.26522 13 9C13 8.73478 13.1054 8.48043 13.2929 8.29289C13.4804 8.10536 13.7348 8 14 8C14.2652 8 14.5196 8.10536 14.7071 8.29289C14.8946 8.48043 15 8.73478 15 9ZM15 5C15 5.26522 14.8946 5.51957 14.7071 5.70711C14.5196 5.89464 14.2652 6 14 6C13.7348 6 13.4804 5.89464 13.2929 5.70711C13.1054 5.51957 13 5.26522 13 5C13 4.73478 13.1054 4.48043 13.2929 4.29289C13.4804 4.10536 13.7348 4 14 4C14.2652 4 14.5196 4.10536 14.7071 4.29289C14.8946 4.48043 15 4.73478 15 5ZM19 9C19 9.26522 18.8946 9.51957 18.7071 9.70711C18.5196 9.89464 18.2652 10 18 10C17.7348 10 17.4804 9.89464 17.2929 9.70711C17.1054 9.51957 17 9.26522 17 9C17 8.73478 17.1054 8.48043 17.2929 8.29289C17.4804 8.10536 17.7348 8 18 8C18.2652 8 18.5196 8.10536 18.7071 8.29289C18.8946 8.48043 19 8.73478 19 9ZM19 5C19 5.26522 18.8946 5.51957 18.7071 5.70711C18.5196 5.89464 18.2652 6 18 6C17.7348 6 17.4804 5.89464 17.2929 5.70711C17.1054 5.51957 17 5.26522 17 5C17 4.73478 17.1054 4.48043 17.2929 4.29289C17.4804 4.10536 17.7348 4 18 4C18.2652 4 18.5196 4.10536 18.7071 4.29289C18.8946 4.48043 19 4.73478 19 5Z" fill="#7F82AA"/>
</g>
</svg>
