<svg width="24" height="24" viewBox="0 0 24 24" fill="none" xmlns="http://www.w3.org/2000/svg">
<path d="M19.3635 15.1132C18.8546 16.3175 18.0586 17.3786 17.0451 18.2039C16.0316 19.0292 14.8314 19.5935 13.5496 19.8475C12.2677 20.1016 10.9432 20.0375 9.69182 19.6611C8.44042 19.2846 7.30025 18.6071 6.37098 17.6879C5.44171 16.7687 4.75164 15.6357 4.36111 14.388C3.97057 13.1403 3.89146 11.8159 4.13068 10.5305C4.36991 9.24518 4.92019 8.03802 5.73341 7.01461C6.54664 5.99119 7.59805 5.18267 8.79572 4.65974" stroke="#7F82AA" stroke-width="2.6" stroke-linecap="round" stroke-linejoin="round"/>
<path d="M19.9955 11.9995C19.9955 10.9484 19.7886 9.90757 19.3866 8.93646C18.9845 7.96534 18.3953 7.08297 17.6524 6.33971C16.9096 5.59645 16.0277 5.00686 15.0571 4.60461C14.0865 4.20237 13.0462 3.99533 11.9957 3.99533V11.9995H19.9955Z" stroke="#7F82AA" stroke-width="2.6" stroke-linecap="round" stroke-linejoin="round"/>
</svg>
