<svg width="14" height="6" viewBox="0 0 14 6" fill="none" xmlns="http://www.w3.org/2000/svg">
<path fill-rule="evenodd" clip-rule="evenodd" d="M2 5C2 5.26522 1.89464 5.51957 1.70711 5.70711C1.51957 5.89464 1.26522 6 1 6C0.734784 6 0.48043 5.89464 0.292893 5.70711C0.105357 5.51957 -3.21184e-08 5.26522 -4.37114e-08 5C-5.53044e-08 4.73478 0.105357 4.48043 0.292893 4.29289C0.48043 4.10536 0.734783 4 1 4C1.26522 4 1.51957 4.10536 1.70711 4.29289C1.89464 4.48043 2 4.73478 2 5ZM6 5C6 5.26522 5.89464 5.51957 5.70711 5.70711C5.51957 5.89464 5.26522 6 5 6C4.73478 6 4.48043 5.89464 4.29289 5.70711C4.10536 5.51957 4 5.26522 4 5C4 4.73478 4.10536 4.48043 4.29289 4.29289C4.48043 4.10536 4.73478 4 5 4C5.26522 4 5.51957 4.10536 5.70711 4.29289C5.89464 4.48043 6 4.73478 6 5ZM2 1C2 1.26522 1.89464 1.51957 1.70711 1.70711C1.51957 1.89464 1.26522 2 1 2C0.734783 2 0.48043 1.89464 0.292893 1.70711C0.105357 1.51957 -2.06964e-07 1.26522 -2.18557e-07 1C-2.3015e-07 0.734784 0.105357 0.48043 0.292893 0.292893C0.48043 0.105357 0.734783 -3.21184e-08 1 -4.37114e-08C1.26522 -5.53044e-08 1.51957 0.105357 1.70711 0.292893C1.89464 0.48043 2 0.734783 2 1ZM6 1C6 1.26522 5.89464 1.51957 5.70711 1.70711C5.51957 1.89464 5.26522 2 5 2C4.73478 2 4.48043 1.89464 4.29289 1.70711C4.10536 1.51957 4 1.26522 4 1C4 0.734783 4.10536 0.48043 4.29289 0.292893C4.48043 0.105357 4.73478 -2.06964e-07 5 -2.18557e-07C5.26522 -2.3015e-07 5.51957 0.105357 5.70711 0.292893C5.89464 0.48043 6 0.734783 6 1ZM10 5C10 5.26522 9.89464 5.51957 9.70711 5.70711C9.51957 5.89464 9.26522 6 9 6C8.73478 6 8.48043 5.89464 8.29289 5.70711C8.10536 5.51957 8 5.26522 8 5C8 4.73478 8.10536 4.48043 8.29289 4.29289C8.48043 4.10536 8.73478 4 9 4C9.26522 4 9.51957 4.10536 9.70711 4.29289C9.89464 4.48043 10 4.73478 10 5ZM10 1C10 1.26522 9.89464 1.51957 9.70711 1.70711C9.51957 1.89464 9.26522 2 9 2C8.73478 2 8.48043 1.89464 8.29289 1.70711C8.10536 1.51957 8 1.26522 8 1C8 0.734783 8.10536 0.480429 8.29289 0.292893C8.48043 0.105357 8.73478 -3.8181e-07 9 -3.93402e-07C9.26522 -4.04995e-07 9.51957 0.105357 9.70711 0.292893C9.89464 0.480429 10 0.734783 10 1ZM14 5C14 5.26522 13.8946 5.51957 13.7071 5.70711C13.5196 5.89464 13.2652 6 13 6C12.7348 6 12.4804 5.89464 12.2929 5.70711C12.1054 5.51957 12 5.26522 12 5C12 4.73478 12.1054 4.48043 12.2929 4.29289C12.4804 4.10536 12.7348 4 13 4C13.2652 4 13.5196 4.10536 13.7071 4.29289C13.8946 4.48043 14 4.73478 14 5ZM14 0.999999C14 1.26522 13.8946 1.51957 13.7071 1.70711C13.5196 1.89464 13.2652 2 13 2C12.7348 2 12.4804 1.89464 12.2929 1.70711C12.1054 1.51957 12 1.26522 12 0.999999C12 0.734783 12.1054 0.480429 12.2929 0.292893C12.4804 0.105356 12.7348 -5.56655e-07 13 -5.68248e-07C13.2652 -5.79841e-07 13.5196 0.105356 13.7071 0.292893C13.8946 0.480429 14 0.734783 14 0.999999Z" fill="#7F82AA"/>
</svg>
