<svg width="14" height="14" viewBox="0 0 14 14" fill="none" xmlns="http://www.w3.org/2000/svg">
<path d="M14 12C14 13.1046 13.1046 14 12 14L2 14C0.895427 14 -3.43384e-06 13.1046 -3.38556e-06 12L-2.94845e-06 2C-2.90016e-06 0.89543 0.895428 -5.72819e-07 2 -5.24537e-07L12 4.3712e-08C13.1046 9.19942e-08 14 0.89543 14 2L14 12ZM12 12L12 2L2 2L2 3L5.5 3C5.77614 3 6 3.22386 6 3.5L6 4.5C6 4.77614 5.77614 5 5.5 5L2 5L2 9L10.5 9C10.7761 9 11 9.22386 11 9.5L11 10.5C11 10.7761 10.7761 11 10.5 11L2 11L2 6L7.5 6C7.77614 6 8 6.22386 8 6.5L8 7.5C8 7.77614 7.77614 8 7.5 8L2 8L2 11L2 12L12 12Z" fill="#7F82AA"/>
</svg>
