<svg width="16" height="17" viewBox="0 0 16 17" fill="none" xmlns="http://www.w3.org/2000/svg">
<path d="M4 12.8026H6.15918C6.87793 12.8026 7.2002 11.9213 6.71875 11.4432L6.2373 10.9619L7.67871 9.5213C8.36621 8.84003 7.40625 7.63379 6.55957 8.40253L5.11914 9.84314L4.6377 9.36194C4.15625 8.88068 3.27832 9.20251 3.27832 9.92126V12.0807C3.2002 12.4838 3.51855 12.8026 4 12.8026Z" fill="#7F82AA"/>
<path d="M9.84082 3.20258H12C12.4814 3.12128 12.7998 3.5213 12.7217 3.92444V6.0838C12.7217 6.80255 11.8438 7.12445 11.3623 6.64319L10.8818 6.16193L9.44043 7.60254C8.69727 8.3244 7.58789 7.25879 8.32227 6.48383L9.7627 5.04315L9.28125 4.56195C8.7998 4.0838 9.12207 3.20258 9.84082 3.20258Z" fill="#7F82AA"/>
<path fill-rule="evenodd" clip-rule="evenodd" d="M1.59961 0.00256348H14.4004C15.2812 0.00256348 16 0.721313 16 1.60254V14.4026C16 15.2838 15.2812 16.0026 14.4004 16.0026H1.59961C0.71875 16.0026 0 15.2838 0 14.4026V1.60254C0 0.721313 0.71875 0.00256348 1.59961 0.00256348ZM14.3994 14.4025V1.60254H1.59961V14.4025H14.3994Z" fill="#7F82AA"/>
</svg>
