<svg width="18" height="18" viewBox="0 0 18 18" fill="none" xmlns="http://www.w3.org/2000/svg">
<path d="M9 0C13.9706 0 18 4.02944 18 9C18 13.9706 13.9706 18 9 18C4.02944 18 0 13.9706 0 9C0 4.02944 4.02944 0 9 0ZM9 2C5.13401 2 2 5.13401 2 9C2 12.866 5.13401 16 9 16C12.866 16 16 12.866 16 9C16 5.13401 12.866 2 9 2ZM9 7C9.55228 7 10 7.44772 10 8V13C10 13.5523 9.55228 14 9 14C8.44772 14 8 13.5523 8 13V8C8 7.44772 8.44772 7 9 7ZM9 4C9.55228 4 10 4.44772 10 5C10 5.55228 9.55228 6 9 6C8.44772 6 8 5.55228 8 5C8 4.44772 8.44772 4 9 4Z" fill="#52555A"/>
</svg>
