<svg width="16" height="16" viewBox="0 0 16 16" fill="none" xmlns="http://www.w3.org/2000/svg">
<path d="M13 8.99676V12.9999C13 13.553 12.5531 13.9999 12 13.9999H4C3.44687 13.9999 3 13.553 3 12.9999V4.99363C3 4.44051 3.44687 3.99363 4 3.99363H11.7875L11.3812 4.39988C10.5219 5.31551 11.8094 6.57176 12.7 5.71863L14.7594 3.65926C15.0687 3.31551 15.0812 2.71238 14.7594 2.34051L12.7 0.27801C11.7344 -0.57824 10.5469 0.73426 11.3812 1.59676L11.7781 1.99363H4C2.34375 1.99363 1 3.33738 1 4.99363V12.9999C1 14.6561 2.34375 15.9999 4 15.9999H12C13.6562 15.9999 15 14.6561 15 12.9999V8.99676C15 7.66238 13 7.68426 13 8.99676Z" fill="white"/>
<path d="M8.54064 12.0063H5.46877C4.8219 12.0063 4.80315 11.0063 5.46877 11.0063H8.54064C9.20939 11.0063 9.16564 12.0063 8.54064 12.0063Z" fill="white"/>
<path d="M10.5938 9.99683H5.46878C4.8219 9.99683 4.80315 8.99683 5.46878 8.99683H10.5938C11.2594 8.99683 11.2188 9.99683 10.5938 9.99683Z" fill="white"/>
<path d="M10.6172 8H5.49221C4.84534 8 4.82659 7 5.49221 7H10.6172C11.2829 7 11.2422 8 10.6172 8Z" fill="white"/>
</svg>
