<svg width="16" height="18" viewBox="0 0 16 18" fill="none" xmlns="http://www.w3.org/2000/svg">
<path d="M13 0C14.6569 0 16 1.34315 16 3C16 4.65685 14.6569 6 13 6C12.2743 6 11.6088 5.74233 11.0899 5.31348L5.94038 8.40191C5.97948 8.59519 6 8.7952 6 9C6 9.2048 5.97948 9.40481 5.94038 9.59809L11.0899 12.6865C11.6088 12.2577 12.2743 12 13 12C14.6569 12 16 13.3431 16 15C16 16.6569 14.6569 18 13 18C11.3431 18 10 16.6569 10 15C10 14.7952 10.0205 14.5952 10.0596 14.4019L4.91006 11.3135C4.39122 11.7423 3.7257 12 3 12C1.34315 12 0 10.6569 0 9C0 7.34315 1.34315 6 3 6C3.7257 6 4.39122 6.25767 4.91006 6.68652L10.0596 3.59809C10.0205 3.40481 10 3.2048 10 3C10 1.34315 11.3431 0 13 0ZM13 14C12.4477 14 12 14.4477 12 15C12 15.5523 12.4477 16 13 16C13.5523 16 14 15.5523 14 15C14 14.4477 13.5523 14 13 14ZM3 8C2.44772 8 2 8.44772 2 9C2 9.55228 2.44772 10 3 10C3.55228 10 4 9.55228 4 9C4 8.44772 3.55228 8 3 8ZM13 2C12.4477 2 12 2.44772 12 3C12 3.55228 12.4477 4 13 4C13.5523 4 14 3.55228 14 3C14 2.44772 13.5523 2 13 2Z" fill="#52555A"/>
</svg>
