<svg width="16" height="14" viewBox="0 0 16 14" fill="none" xmlns="http://www.w3.org/2000/svg">
<path d="M11.2071 0.752885L14.7426 4.28842C15.1332 4.67894 15.1332 5.31211 14.7426 5.70263L11.2071 9.23817C10.8166 9.62869 10.1834 9.62869 9.79289 9.23817C9.40237 8.84764 9.40237 8.21448 9.79289 7.82395L11.618 5.99799L5 5.99867C3.34315 5.99867 2 7.34182 2 8.99867C2 10.6555 3.34315 11.9987 5 11.9987H7C7.55228 11.9987 8 12.4464 8 12.9987C8 13.551 7.55228 13.9987 7 13.9987H5C2.23858 13.9987 0 11.7601 0 8.99867C0 6.23725 2.23858 3.99867 5 3.99867L11.624 3.99799L9.79289 2.1671C9.40237 1.77657 9.40237 1.14341 9.79289 0.752885C10.1834 0.36236 10.8166 0.36236 11.2071 0.752885Z" fill="#42567D"/>
</svg>
