<svg width="16" height="20" viewBox="0 0 16 20" fill="none" xmlns="http://www.w3.org/2000/svg">
<path d="M11.0248 0C11.2916 0 11.5473 0.106603 11.7351 0.296099L15.7103 4.30745C15.8959 4.49472 16 4.7477 16 5.01135V17C16 18.6569 14.6569 20 13 20H3C1.34315 20 0 18.6569 0 17V3C0 1.34315 1.34315 0 3 0H11.0248ZM9 2H3C2.44772 2 2 2.44772 2 3V17C2 17.5523 2.44772 18 3 18H13C13.5523 18 14 17.5523 14 17V6.999L11 7C9.89543 7 9 6.10457 9 5V2ZM6 14C6.55228 14 7 14.4477 7 15C7 15.5523 6.55228 16 6 16H4C3.44772 16 3 15.5523 3 15C3 14.4477 3.44772 14 4 14H6ZM11 14C11.5523 14 12 14.4477 12 15C12 15.5523 11.5523 16 11 16H9C8.44772 16 8 15.5523 8 15C8 14.4477 8.44772 14 9 14H11ZM6 11C6.55228 11 7 11.4477 7 12C7 12.5523 6.55228 13 6 13H4C3.44772 13 3 12.5523 3 12C3 11.4477 3.44772 11 4 11H6ZM11 11C11.5523 11 12 11.4477 12 12C12 12.5523 11.5523 13 11 13H9C8.44772 13 8 12.5523 8 12C8 11.4477 8.44772 11 9 11H11ZM6 8C6.55228 8 7 8.44772 7 9C7 9.55228 6.55228 10 6 10H4C3.44772 10 3 9.55228 3 9C3 8.44772 3.44772 8 4 8H6ZM11 8C11.5523 8 12 8.44772 12 9C12 9.55228 11.5523 10 11 10H9C8.44772 10 8 9.55228 8 9C8 8.44772 8.44772 8 9 8H11ZM11 2.396V5L13.581 4.999L11 2.396Z" fill="#7F82AA"/>
</svg>
