<svg width="32" height="32" viewBox="0 0 32 32" fill="none" xmlns="http://www.w3.org/2000/svg">
<g clip-path="url(#clip0_41_18979)">
<path d="M19.2138 32H12.7908C5.73477 32 0 26.2652 0 19.2138V12.7908C0 5.73477 5.73477 0 12.7862 0H19.2092C26.2606 0 31.9954 5.73477 31.9954 12.7862V19.2092C32 26.2652 26.2652 32 19.2138 32ZM12.7862 1.37634C6.49634 1.37634 1.37634 6.49634 1.37634 12.7862V19.2092C1.37634 25.5037 6.49634 30.6191 12.7862 30.6191H19.2092C25.5037 30.6191 30.6191 25.4991 30.6191 19.2092V12.7862C30.6237 6.49634 25.5037 1.37634 19.2138 1.37634H12.7862Z" fill="#00004B"/>
<path d="M12.2678 9.57018H11.6714C11.052 9.57018 10.5474 9.06552 10.5474 8.44617V7.84975C10.5474 7.2304 11.052 6.72574 11.6714 6.72574H12.2678C12.8871 6.72574 13.3918 7.2304 13.3918 7.84975V8.44617C13.3918 9.06552 12.8871 9.57018 12.2678 9.57018Z" fill="#00004B"/>
<path d="M12.2678 17.4245H11.6714C11.052 17.4245 10.5474 16.9199 10.5474 16.3005V15.7041C10.5474 15.0847 11.052 14.5801 11.6714 14.5801H12.2678C12.8871 14.5801 13.3918 15.0847 13.3918 15.7041V16.3005C13.3918 16.9199 12.8871 17.4245 12.2678 17.4245Z" fill="#00004B"/>
<path d="M8.26267 13.4698H7.66625C7.0469 13.4698 6.54224 12.9652 6.54224 12.3458V11.7494C6.54224 11.1301 7.0469 10.6254 7.66625 10.6254H8.26267C8.88202 10.6254 9.38668 11.1301 9.38668 11.7494V12.3458C9.38668 12.9698 8.88202 13.4698 8.26267 13.4698Z" fill="#00004B"/>
<path d="M8.26267 17.4245H7.66625C7.0469 17.4245 6.54224 16.9199 6.54224 16.3005V15.7041C6.54224 15.0847 7.0469 14.5801 7.66625 14.5801H8.26267C8.88202 14.5801 9.38668 15.0847 9.38668 15.7041V16.3005C9.38668 16.9199 8.88202 17.4245 8.26267 17.4245Z" fill="#00004B"/>
<path d="M24.3108 13.4698H23.7144C23.0951 13.4698 22.5904 12.9652 22.5904 12.3458V11.7494C22.5904 11.1301 23.0951 10.6254 23.7144 10.6254H24.3108C24.9302 10.6254 25.4348 11.1301 25.4348 11.7494V12.3458C25.4348 12.9652 24.9302 13.4698 24.3108 13.4698Z" fill="#00004B"/>
<path d="M24.3108 17.4245H23.7144C23.0951 17.4245 22.5904 16.9199 22.5904 16.3005V15.7041C22.5904 15.0847 23.0951 14.5801 23.7144 14.5801H24.3108C24.9302 14.5801 25.4348 15.0847 25.4348 15.7041V16.3005C25.4348 16.9199 24.9302 17.4245 24.3108 17.4245Z" fill="#00004B"/>
<path d="M20.2782 17.4245H19.6818C19.0624 17.4245 18.5577 16.9199 18.5577 16.3005V15.7041C18.5577 15.0847 19.0624 14.5801 19.6818 14.5801H20.2782C20.8975 14.5801 21.4022 15.0847 21.4022 15.7041V16.3005C21.4022 16.9199 20.8975 17.4245 20.2782 17.4245Z" fill="#00004B"/>
<path d="M12.2678 21.3792H11.6714C11.052 21.3792 10.5474 20.8746 10.5474 20.2552V19.6588C10.5474 19.0394 11.052 18.5348 11.6714 18.5348H12.2678C12.8871 18.5348 13.3918 19.0394 13.3918 19.6588V20.2552C13.3918 20.8746 12.8871 21.3792 12.2678 21.3792Z" fill="#00004B"/>
<path d="M20.2782 21.3746H19.6818C19.0624 21.3746 18.5577 20.87 18.5577 20.2506V19.6542C18.5577 19.0348 19.0624 18.5302 19.6818 18.5302H20.2782C20.8975 18.5302 21.4022 19.0348 21.4022 19.6542V20.2506C21.4022 20.8746 20.9021 21.3746 20.2782 21.3746Z" fill="#00004B"/>
<path d="M16.2179 9.57018H15.6215C15.0022 9.57018 14.4975 9.06552 14.4975 8.44617V7.84975C14.4975 7.2304 15.0022 6.72574 15.6215 6.72574H16.2179C16.8373 6.72574 17.3419 7.2304 17.3419 7.84975V8.44617C17.3465 9.06552 16.8419 9.57018 16.2179 9.57018Z" fill="#00004B"/>
<path d="M16.2225 25.3064H15.6261C15.0067 25.3064 14.5021 24.8017 14.5021 24.1824V23.586C14.5021 22.9666 15.0067 22.4619 15.6261 22.4619H16.2225C16.8419 22.4619 17.3465 22.9666 17.3465 23.586V24.1824C17.3465 24.8017 16.8419 25.3064 16.2225 25.3064Z" fill="#00004B"/>
<path d="M20.1726 9.57018H19.5762C18.9569 9.57018 18.4522 9.06552 18.4522 8.44617V7.84975C18.4522 7.2304 18.9569 6.72574 19.5762 6.72574H20.1726C20.792 6.72574 21.2967 7.2304 21.2967 7.84975V8.44617C21.2967 9.06552 20.7966 9.57018 20.1726 9.57018Z" fill="#00004B"/>
<path d="M12.2495 24.8614H11.8503C11.4328 24.8614 11.0933 24.5219 11.0933 24.1044V23.7052C11.0933 23.2877 11.4328 22.9482 11.8503 22.9482H12.2495C12.6669 22.9482 13.0064 23.2877 13.0064 23.7052V24.1044C13.0019 24.5264 12.6669 24.8614 12.2495 24.8614Z" fill="#00004B"/>
<path d="M9.23071 24.0815H8.83157C8.41408 24.0815 8.07458 23.742 8.07458 23.3245V22.9253C8.07458 22.5078 8.41408 22.1683 8.83157 22.1683H9.23071C9.64821 22.1683 9.9877 22.5078 9.9877 22.9253V23.3245C9.9877 23.7465 9.64821 24.0815 9.23071 24.0815Z" fill="#00004B"/>
<path d="M9.01965 9.77664H8.62052C8.20302 9.77664 7.86353 9.43715 7.86353 9.01965V8.62052C7.86353 8.20302 8.20302 7.86353 8.62052 7.86353H9.01965C9.43715 7.86353 9.77664 8.20302 9.77664 8.62052V9.01965C9.77664 9.44173 9.43715 9.77664 9.01965 9.77664Z" fill="#00004B"/>
<path d="M23.3245 9.77664H22.9253C22.5078 9.77664 22.1683 9.43715 22.1683 9.01965V8.62052C22.1683 8.20302 22.5078 7.86353 22.9253 7.86353H23.3245C23.742 7.86353 24.0815 8.20302 24.0815 8.62052V9.01965C24.0815 9.43715 23.742 9.77664 23.3245 9.77664Z" fill="#00004B"/>
<path d="M20.09 24.8614H19.6909C19.2734 24.8614 18.9339 24.5219 18.9339 24.1044V23.7052C18.9339 23.2877 19.2734 22.9482 19.6909 22.9482H20.09C20.5075 22.9482 20.847 23.2877 20.847 23.7052V24.1044C20.847 24.5219 20.5075 24.8614 20.09 24.8614Z" fill="#00004B"/>
<path d="M23.797 20.7644H23.3979C22.9804 20.7644 22.6409 20.4249 22.6409 20.0074V19.6083C22.6409 19.1908 22.9804 18.8513 23.3979 18.8513H23.797C24.2145 18.8513 24.554 19.1908 24.554 19.6083V20.0074C24.5494 20.4249 24.2145 20.7644 23.797 20.7644Z" fill="#00004B"/>
<path d="M8.50122 20.769H8.10208C7.68459 20.769 7.34509 20.4295 7.34509 20.0121V19.6129C7.34509 19.1954 7.68459 18.8559 8.10208 18.8559H8.50122C8.91871 18.8559 9.25821 19.1954 9.25821 19.6129V20.0121C9.25821 20.4295 8.91871 20.769 8.50122 20.769Z" fill="#00004B"/>
<path d="M23.1593 23.9759H22.7602C22.3427 23.9759 22.0032 23.6364 22.0032 23.2189V22.8198C22.0032 22.4023 22.3427 22.0628 22.7602 22.0628H23.1593C23.5768 22.0628 23.9163 22.4023 23.9163 22.8198V23.2189C23.9117 23.641 23.5768 23.9759 23.1593 23.9759Z" fill="#00004B"/>
<path d="M14.135 28.0224H13.8644C13.5799 28.0224 13.3505 27.793 13.3505 27.5085V27.2379C13.3505 26.9534 13.5799 26.724 13.8644 26.724H14.135C14.4195 26.724 14.6489 26.9534 14.6489 27.2379V27.5085C14.6489 27.793 14.4195 28.0224 14.135 28.0224Z" fill="#00004B"/>
<path d="M10.4052 27.2103H10.1345C9.85006 27.2103 9.62067 26.9809 9.62067 26.6965V26.4258C9.62067 26.1414 9.85006 25.912 10.1345 25.912H10.4052C10.6896 25.912 10.919 26.1414 10.919 26.4258V26.6965C10.919 26.9809 10.6896 27.2103 10.4052 27.2103Z" fill="#00004B"/>
<path d="M7.28543 25.8753H7.01475C6.73031 25.8753 6.50092 25.6459 6.50092 25.3615V25.0908C6.50092 24.8063 6.73031 24.5769 7.01475 24.5769H7.28543C7.56988 24.5769 7.79927 24.8063 7.79927 25.0908V25.3615C7.79927 25.6459 7.56988 25.8753 7.28543 25.8753Z" fill="#00004B"/>
<path d="M6.0192 22.7189H5.74852C5.46407 22.7189 5.23468 22.4895 5.23468 22.205V21.9343C5.23468 21.6499 5.46407 21.4205 5.74852 21.4205H6.0192C6.30364 21.4205 6.53303 21.6499 6.53303 21.9343V22.205C6.53303 22.4895 6.30364 22.7189 6.0192 22.7189Z" fill="#00004B"/>
<path d="M5.11545 19.7872H4.84477C4.56032 19.7872 4.33093 19.5579 4.33093 19.2734V19.0027C4.33093 18.7183 4.56032 18.4889 4.84477 18.4889H5.11545C5.39989 18.4889 5.62928 18.7183 5.62928 19.0027V19.2734C5.62928 19.5579 5.39989 19.7872 5.11545 19.7872Z" fill="#00004B"/>
<path d="M4.57864 16.562H4.30796C4.02352 16.562 3.79413 16.3326 3.79413 16.0482V15.7775C3.79413 15.4931 4.02352 15.2637 4.30796 15.2637H4.57864C4.86309 15.2637 5.09248 15.4931 5.09248 15.7775V16.0482C5.09248 16.3326 4.86309 16.562 4.57864 16.562Z" fill="#00004B"/>
<path d="M5.06497 13.3551H4.79429C4.50985 13.3551 4.28046 13.1258 4.28046 12.8413V12.5706C4.28046 12.2862 4.50985 12.0568 4.79429 12.0568H5.06497C5.34942 12.0568 5.57881 12.2862 5.57881 12.5706V12.8413C5.57881 13.1258 5.34942 13.3551 5.06497 13.3551Z" fill="#00004B"/>
<path d="M6.00089 10.4602H5.7302C5.44576 10.4602 5.21637 10.2308 5.21637 9.94638V9.6757C5.21637 9.39126 5.44576 9.16187 5.7302 9.16187H6.00089C6.28533 9.16187 6.51472 9.39126 6.51472 9.6757V9.94638C6.51472 10.2308 6.28533 10.4602 6.00089 10.4602Z" fill="#00004B"/>
<path d="M7.52402 7.17994H7.25334C6.96889 7.17994 6.7395 6.95055 6.7395 6.66611V6.39543C6.7395 6.11098 6.96889 5.88159 7.25334 5.88159H7.52402C7.80846 5.88159 8.03785 6.11098 8.03785 6.39543V6.66611C8.03785 6.95055 7.80846 7.17994 7.52402 7.17994Z" fill="#00004B"/>
<path d="M10.7171 6.01921H10.4465C10.162 6.01921 9.93262 5.78982 9.93262 5.50537V5.23469C9.93262 4.95025 10.162 4.72086 10.4465 4.72086H10.7171C11.0016 4.72086 11.231 4.95025 11.231 5.23469V5.50537C11.2264 5.78982 10.997 6.01921 10.7171 6.01921Z" fill="#00004B"/>
<path d="M14.0984 5.27598H13.8277C13.5432 5.27598 13.3138 5.04659 13.3138 4.76215V4.49147C13.3138 4.20702 13.5432 3.97763 13.8277 3.97763H14.0984C14.3828 3.97763 14.6122 4.20702 14.6122 4.49147V4.76215C14.6076 5.04659 14.3782 5.27598 14.0984 5.27598Z" fill="#00004B"/>
<path d="M18.154 5.2714H17.8833C17.5988 5.2714 17.3694 5.04201 17.3694 4.75757V4.48689C17.3694 4.20244 17.5988 3.97305 17.8833 3.97305H18.154C18.4384 3.97305 18.6678 4.20244 18.6678 4.48689V4.75757C18.6678 5.04201 18.4384 5.2714 18.154 5.2714Z" fill="#00004B"/>
<path d="M21.4664 5.98252H21.1957C20.9113 5.98252 20.6819 5.75313 20.6819 5.46869V5.19801C20.6819 4.91356 20.9113 4.68417 21.1957 4.68417H21.4664C21.7508 4.68417 21.9802 4.91356 21.9802 5.19801V5.46869C21.9802 5.75313 21.7508 5.98252 21.4664 5.98252Z" fill="#00004B"/>
<path d="M24.71 7.28544H24.4393C24.1549 7.28544 23.9255 7.05605 23.9255 6.77161V6.50093C23.9255 6.21648 24.1549 5.98709 24.4393 5.98709H24.71C24.9944 5.98709 25.2238 6.21648 25.2238 6.50093V6.77161C25.2192 7.05605 24.9898 7.28544 24.71 7.28544Z" fill="#00004B"/>
<path d="M26.2193 10.5107H25.9487C25.6642 10.5107 25.4348 10.2813 25.4348 9.99686V9.72618C25.4348 9.44173 25.6642 9.21234 25.9487 9.21234H26.2193C26.5038 9.21234 26.7332 9.44173 26.7332 9.72618V9.99686C26.7286 10.2813 26.4992 10.5107 26.2193 10.5107Z" fill="#00004B"/>
<path d="M27.2746 13.4056H27.0039C26.7194 13.4056 26.4901 13.1762 26.4901 12.8918V12.6211C26.4901 12.3366 26.7194 12.1072 27.0039 12.1072H27.2746C27.559 12.1072 27.7884 12.3366 27.7884 12.6211V12.8918C27.7884 13.1762 27.559 13.4056 27.2746 13.4056Z" fill="#00004B"/>
<path d="M27.692 16.5941H27.4214C27.1369 16.5941 26.9075 16.3647 26.9075 16.0803V15.8096C26.9075 15.5252 27.1369 15.2958 27.4214 15.2958H27.692C27.9765 15.2958 28.2059 15.5252 28.2059 15.8096V16.0803C28.2059 16.3647 27.9765 16.5941 27.692 16.5941Z" fill="#00004B"/>
<path d="M27.2057 19.8377H26.935C26.6506 19.8377 26.4212 19.6083 26.4212 19.3239V19.0532C26.4212 18.7688 26.6506 18.5394 26.935 18.5394H27.2057C27.4902 18.5394 27.7196 18.7688 27.7196 19.0532V19.3239C27.7196 19.6083 27.4902 19.8377 27.2057 19.8377Z" fill="#00004B"/>
<path d="M26.2377 22.6821H25.967C25.6826 22.6821 25.4532 22.4527 25.4532 22.1683V21.8976C25.4532 21.6132 25.6826 21.3838 25.967 21.3838H26.2377C26.5221 21.3838 26.7515 21.6132 26.7515 21.8976V22.1683C26.7469 22.4527 26.5176 22.6821 26.2377 22.6821Z" fill="#00004B"/>
<path d="M24.9531 25.9212H24.6824C24.398 25.9212 24.1686 25.6918 24.1686 25.4073V25.1366C24.1686 24.8522 24.398 24.6228 24.6824 24.6228H24.9531C25.2375 24.6228 25.4669 24.8522 25.4669 25.1366V25.4073C25.4669 25.6918 25.2375 25.9212 24.9531 25.9212Z" fill="#00004B"/>
<path d="M18.1035 28.0224H17.8329C17.5484 28.0224 17.319 27.793 17.319 27.5085V27.2379C17.319 26.9534 17.5484 26.724 17.8329 26.724H18.1035C18.388 26.724 18.6174 26.9534 18.6174 27.2379V27.5085C18.6174 27.793 18.388 28.0224 18.1035 28.0224Z" fill="#00004B"/>
<path d="M21.8564 27.2195H21.5857C21.3012 27.2195 21.0718 26.9901 21.0718 26.7057V26.435C21.0718 26.1505 21.3012 25.9211 21.5857 25.9211H21.8564C22.1408 25.9211 22.3702 26.1505 22.3702 26.435V26.7057C22.3702 26.9901 22.1408 27.2195 21.8564 27.2195Z" fill="#00004B"/>
</g>
<defs>
<clipPath id="clip0_41_18979">
<rect width="32" height="32" fill="white"/>
</clipPath>
</defs>
</svg>
