<svg width="16" height="14" viewBox="0 0 16 14" fill="none" xmlns="http://www.w3.org/2000/svg">
<path d="M3.82842 0.752885L0.292881 4.28842C-0.0976429 4.67894 -0.0976429 5.31211 0.292881 5.70263L3.82842 9.23817C4.21894 9.62869 4.85211 9.62869 5.24263 9.23817C5.63315 8.84764 5.63315 8.21448 5.24263 7.82395L3.41752 5.99799L10.0355 5.99867C11.6924 5.99867 13.0355 7.34182 13.0355 8.99867C13.0355 10.6555 11.6924 11.9987 10.0355 11.9987H8.03552C7.48324 11.9987 7.03552 12.4464 7.03552 12.9987C7.03552 13.551 7.48324 13.9987 8.03552 13.9987H10.0355C12.7969 13.9987 15.0355 11.7601 15.0355 8.99867C15.0355 6.23725 12.7969 3.99867 10.0355 3.99867L3.41152 3.99799L5.24263 2.1671C5.63315 1.77657 5.63315 1.14341 5.24263 0.752885C4.85211 0.36236 4.21894 0.36236 3.82842 0.752885Z" fill="#42567D"/>
</svg>
